<svg width="1109" height="803" viewBox="0 0 1109 803" fill="none" xmlns="http://www.w3.org/2000/svg">
<path d="M19.9113 393H2.95125V388.36L13.3513 379.688C13.9913 379.112 14.1513 378.856 14.1513 378.28V377.608C14.1513 376.808 13.6713 376.392 12.7113 376.392H10.1513C9.19125 376.392 8.71125 376.808 8.71125 377.608V379.368L2.95125 377.928V376.552C2.95125 372.712 5.51125 371.112 9.35125 371.112H13.5113C17.3513 371.112 19.9113 372.712 19.9113 376.552V378.664C19.9113 380.232 19.0793 381.768 17.5433 382.952L11.9113 387.528V387.624H19.9113V393ZM39.1238 393H22.1637V388.36L32.5638 379.688C33.2038 379.112 33.3638 378.856 33.3638 378.28V377.608C33.3638 376.808 32.8837 376.392 31.9237 376.392H29.3638C28.4038 376.392 27.9237 376.808 27.9237 377.608V379.368L22.1637 377.928V376.552C22.1637 372.712 24.7237 371.112 28.5638 371.112H32.7238C36.5638 371.112 39.1238 372.712 39.1238 376.552V378.664C39.1238 380.232 38.2917 381.768 36.7558 382.952L31.1237 387.528V387.624H39.1238V393ZM58.4963 383.848V387.56C58.4963 391.4 55.9363 393 52.0962 393H48.2562C44.4162 393 41.8562 391.4 41.8562 387.56V386.952L47.6163 385.544V386.408C47.6163 387.208 48.0962 387.624 49.0562 387.624H51.2962C52.2562 387.624 52.7362 387.208 52.7362 386.408V384.776C52.7362 383.976 52.2562 383.56 51.2962 383.56H49.3123C48.3842 383.56 47.6163 383.912 47.6163 384.584H41.8562V371.112H57.7922V376.392H47.6163V379.24C48.4482 378.728 49.7922 378.376 51.1362 378.376H52.2882C55.4562 378.376 58.4963 379.88 58.4963 383.848ZM66.0288 393V387.24H72.1088V393.352C72.1088 396.168 70.6368 398.28 67.5648 398.28H66.4768L65.5168 395.88H66.4768C67.9168 395.88 68.8768 394.824 68.8768 393.48V393H66.0288ZM90.3612 393H86.2012C82.3612 393 79.8012 391.4 79.8012 387.56V376.552C79.8012 372.712 82.3612 371.112 86.2012 371.112H90.3612C94.2013 371.112 96.7612 372.712 96.7612 376.552V387.56C96.7612 391.4 94.2013 393 90.3612 393ZM87.0012 387.624H89.5612C90.5212 387.624 91.0012 387.208 91.0012 386.408V377.608C91.0012 376.808 90.5212 376.392 89.5612 376.392H87.0012C86.0412 376.392 85.5612 376.808 85.5612 377.608V386.408C85.5612 387.208 86.0412 387.624 87.0012 387.624ZM109.574 393H105.414C101.574 393 99.0138 391.4 99.0138 387.56V376.552C99.0138 372.712 101.574 371.112 105.414 371.112H109.574C113.414 371.112 115.974 372.712 115.974 376.552V387.56C115.974 391.4 113.414 393 109.574 393ZM106.214 387.624H108.774C109.734 387.624 110.214 387.208 110.214 386.408V377.608C110.214 376.808 109.734 376.392 108.774 376.392H106.214C105.254 376.392 104.774 376.808 104.774 377.608V386.408C104.774 387.208 105.254 387.624 106.214 387.624ZM128.786 393H124.626C120.786 393 118.226 391.4 118.226 387.56V376.552C118.226 372.712 120.786 371.112 124.626 371.112H128.786C132.626 371.112 135.186 372.712 135.186 376.552V387.56C135.186 391.4 132.626 393 128.786 393ZM125.426 387.624H127.986C128.946 387.624 129.426 387.208 129.426 386.408V377.608C129.426 376.808 128.946 376.392 127.986 376.392H125.426C124.466 376.392 123.986 376.808 123.986 377.608V386.408C123.986 387.208 124.466 387.624 125.426 387.624ZM142.879 393V387.24H148.959V393.352C148.959 396.168 147.487 398.28 144.415 398.28H143.327L142.367 395.88H143.327C144.767 395.88 145.727 394.824 145.727 393.48V393H142.879ZM167.211 393H163.051C159.211 393 156.651 391.4 156.651 387.56V376.552C156.651 372.712 159.211 371.112 163.051 371.112H167.211C171.051 371.112 173.611 372.712 173.611 376.552V387.56C173.611 391.4 171.051 393 167.211 393ZM163.851 387.624H166.411C167.371 387.624 167.851 387.208 167.851 386.408V377.608C167.851 376.808 167.371 376.392 166.411 376.392H163.851C162.891 376.392 162.411 376.808 162.411 377.608V386.408C162.411 387.208 162.891 387.624 163.851 387.624ZM186.424 393H182.264C178.424 393 175.864 391.4 175.864 387.56V376.552C175.864 372.712 178.424 371.112 182.264 371.112H186.424C190.264 371.112 192.824 372.712 192.824 376.552V387.56C192.824 391.4 190.264 393 186.424 393ZM183.064 387.624H185.624C186.584 387.624 187.064 387.208 187.064 386.408V377.608C187.064 376.808 186.584 376.392 185.624 376.392H183.064C182.104 376.392 181.624 376.808 181.624 377.608V386.408C181.624 387.208 182.104 387.624 183.064 387.624ZM205.636 393H201.476C197.636 393 195.076 391.4 195.076 387.56V376.552C195.076 372.712 197.636 371.112 201.476 371.112H205.636C209.476 371.112 212.036 372.712 212.036 376.552V387.56C212.036 391.4 209.476 393 205.636 393ZM202.276 387.624H204.836C205.796 387.624 206.276 387.208 206.276 386.408V377.608C206.276 376.808 205.796 376.392 204.836 376.392H202.276C201.316 376.392 200.836 376.808 200.836 377.608V386.408C200.836 387.208 201.316 387.624 202.276 387.624Z" fill="#B5C5FF"/>
<path d="M274.411 32H257.451V27.36L267.851 18.688C268.491 18.112 268.651 17.856 268.651 17.28V16.608C268.651 15.808 268.171 15.392 267.211 15.392H264.651C263.691 15.392 263.211 15.808 263.211 16.608V18.368L257.451 16.928V15.552C257.451 11.712 260.011 10.112 263.851 10.112H268.011C271.851 10.112 274.411 11.712 274.411 15.552V17.664C274.411 19.232 273.579 20.768 272.043 21.952L266.411 26.528V26.624H274.411V32ZM289.144 10.112V26.624H294.456V32H277.72V26.624H283.384V15.392H278.648V10.112H289.144ZM312.996 22.848V26.56C312.996 30.4 310.436 32 306.596 32H302.756C298.916 32 296.356 30.4 296.356 26.56V25.952L302.116 24.544V25.408C302.116 26.208 302.596 26.624 303.556 26.624H305.796C306.756 26.624 307.236 26.208 307.236 25.408V23.776C307.236 22.976 306.756 22.56 305.796 22.56H303.812C302.884 22.56 302.116 22.912 302.116 23.584H296.356V10.112H312.292V15.392H302.116V18.24C302.948 17.728 304.292 17.376 305.636 17.376H306.788C309.956 17.376 312.996 18.88 312.996 22.848ZM320.529 32V26.24H326.609V32.352C326.609 35.168 325.137 37.28 322.065 37.28H320.977L320.017 34.88H320.977C322.417 34.88 323.377 33.824 323.377 32.48V32H320.529ZM344.861 32H340.701C336.861 32 334.301 30.4 334.301 26.56V15.552C334.301 11.712 336.861 10.112 340.701 10.112H344.861C348.701 10.112 351.261 11.712 351.261 15.552V26.56C351.261 30.4 348.701 32 344.861 32ZM341.501 26.624H344.061C345.021 26.624 345.501 26.208 345.501 25.408V16.608C345.501 15.808 345.021 15.392 344.061 15.392H341.501C340.541 15.392 340.061 15.808 340.061 16.608V25.408C340.061 26.208 340.541 26.624 341.501 26.624ZM364.074 32H359.914C356.074 32 353.514 30.4 353.514 26.56V15.552C353.514 11.712 356.074 10.112 359.914 10.112H364.074C367.914 10.112 370.474 11.712 370.474 15.552V26.56C370.474 30.4 367.914 32 364.074 32ZM360.714 26.624H363.274C364.234 26.624 364.714 26.208 364.714 25.408V16.608C364.714 15.808 364.234 15.392 363.274 15.392H360.714C359.754 15.392 359.274 15.808 359.274 16.608V25.408C359.274 26.208 359.754 26.624 360.714 26.624ZM383.286 32H379.126C375.286 32 372.726 30.4 372.726 26.56V15.552C372.726 11.712 375.286 10.112 379.126 10.112H383.286C387.126 10.112 389.686 11.712 389.686 15.552V26.56C389.686 30.4 387.126 32 383.286 32ZM379.926 26.624H382.486C383.446 26.624 383.926 26.208 383.926 25.408V16.608C383.926 15.808 383.446 15.392 382.486 15.392H379.926C378.966 15.392 378.486 15.808 378.486 16.608V25.408C378.486 26.208 378.966 26.624 379.926 26.624ZM397.379 32V26.24H403.459V32.352C403.459 35.168 401.987 37.28 398.915 37.28H397.827L396.867 34.88H397.827C399.267 34.88 400.227 33.824 400.227 32.48V32H397.379ZM421.711 32H417.551C413.711 32 411.151 30.4 411.151 26.56V15.552C411.151 11.712 413.711 10.112 417.551 10.112H421.711C425.551 10.112 428.111 11.712 428.111 15.552V26.56C428.111 30.4 425.551 32 421.711 32ZM418.351 26.624H420.911C421.871 26.624 422.351 26.208 422.351 25.408V16.608C422.351 15.808 421.871 15.392 420.911 15.392H418.351C417.391 15.392 416.911 15.808 416.911 16.608V25.408C416.911 26.208 417.391 26.624 418.351 26.624ZM440.924 32H436.764C432.924 32 430.364 30.4 430.364 26.56V15.552C430.364 11.712 432.924 10.112 436.764 10.112H440.924C444.764 10.112 447.324 11.712 447.324 15.552V26.56C447.324 30.4 444.764 32 440.924 32ZM437.564 26.624H440.124C441.084 26.624 441.564 26.208 441.564 25.408V16.608C441.564 15.808 441.084 15.392 440.124 15.392H437.564C436.604 15.392 436.124 15.808 436.124 16.608V25.408C436.124 26.208 436.604 26.624 437.564 26.624ZM460.136 32H455.976C452.136 32 449.576 30.4 449.576 26.56V15.552C449.576 11.712 452.136 10.112 455.976 10.112H460.136C463.976 10.112 466.536 11.712 466.536 15.552V26.56C466.536 30.4 463.976 32 460.136 32ZM456.776 26.624H459.336C460.296 26.624 460.776 26.208 460.776 25.408V16.608C460.776 15.808 460.296 15.392 459.336 15.392H456.776C455.816 15.392 455.336 15.808 455.336 16.608V25.408C455.336 26.208 455.816 26.624 456.776 26.624Z" fill="#9AE7F8"/>
<path d="M89.6775 188.848V192.56C89.6775 196.4 87.1175 198 83.2775 198H79.4375C75.5975 198 73.0375 196.4 73.0375 192.56V191.952L78.7975 190.544V191.408C78.7975 192.208 79.2775 192.624 80.2375 192.624H82.4775C83.4375 192.624 83.9175 192.208 83.9175 191.408V189.776C83.9175 188.976 83.4375 188.56 82.4775 188.56H80.4935C79.5655 188.56 78.7975 188.912 78.7975 189.584H73.0375V176.112H88.9735V181.392H78.7975V184.24C79.6295 183.728 80.9735 183.376 82.3175 183.376H83.4695C86.6375 183.376 89.6775 184.88 89.6775 188.848ZM108.89 188.848V192.56C108.89 196.4 106.33 198 102.49 198H98.65C94.81 198 92.25 196.4 92.25 192.56V191.952L98.01 190.544V191.408C98.01 192.208 98.49 192.624 99.45 192.624H101.69C102.65 192.624 103.13 192.208 103.13 191.408V189.776C103.13 188.976 102.65 188.56 101.69 188.56H99.706C98.778 188.56 98.01 188.912 98.01 189.584H92.25V176.112H108.186V181.392H98.01V184.24C98.842 183.728 100.186 183.376 101.53 183.376H102.682C105.85 183.376 108.89 184.88 108.89 188.848ZM116.422 198V192.24H122.502V198.352C122.502 201.168 121.03 203.28 117.958 203.28H116.87L115.91 200.88H116.87C118.31 200.88 119.27 199.824 119.27 198.48V198H116.422ZM140.755 198H136.595C132.755 198 130.195 196.4 130.195 192.56V181.552C130.195 177.712 132.755 176.112 136.595 176.112H140.755C144.595 176.112 147.155 177.712 147.155 181.552V192.56C147.155 196.4 144.595 198 140.755 198ZM137.395 192.624H139.955C140.915 192.624 141.395 192.208 141.395 191.408V182.608C141.395 181.808 140.915 181.392 139.955 181.392H137.395C136.435 181.392 135.955 181.808 135.955 182.608V191.408C135.955 192.208 136.435 192.624 137.395 192.624ZM159.967 198H155.807C151.967 198 149.407 196.4 149.407 192.56V181.552C149.407 177.712 151.967 176.112 155.807 176.112H159.967C163.807 176.112 166.367 177.712 166.367 181.552V192.56C166.367 196.4 163.807 198 159.967 198ZM156.607 192.624H159.167C160.127 192.624 160.607 192.208 160.607 191.408V182.608C160.607 181.808 160.127 181.392 159.167 181.392H156.607C155.647 181.392 155.167 181.808 155.167 182.608V191.408C155.167 192.208 155.647 192.624 156.607 192.624ZM179.18 198H175.02C171.18 198 168.62 196.4 168.62 192.56V181.552C168.62 177.712 171.18 176.112 175.02 176.112H179.18C183.02 176.112 185.58 177.712 185.58 181.552V192.56C185.58 196.4 183.02 198 179.18 198ZM175.82 192.624H178.38C179.34 192.624 179.82 192.208 179.82 191.408V182.608C179.82 181.808 179.34 181.392 178.38 181.392H175.82C174.86 181.392 174.38 181.808 174.38 182.608V191.408C174.38 192.208 174.86 192.624 175.82 192.624ZM193.273 198V192.24H199.353V198.352C199.353 201.168 197.881 203.28 194.809 203.28H193.721L192.761 200.88H193.721C195.161 200.88 196.121 199.824 196.121 198.48V198H193.273ZM217.605 198H213.445C209.605 198 207.045 196.4 207.045 192.56V181.552C207.045 177.712 209.605 176.112 213.445 176.112H217.605C221.445 176.112 224.005 177.712 224.005 181.552V192.56C224.005 196.4 221.445 198 217.605 198ZM214.245 192.624H216.805C217.765 192.624 218.245 192.208 218.245 191.408V182.608C218.245 181.808 217.765 181.392 216.805 181.392H214.245C213.285 181.392 212.805 181.808 212.805 182.608V191.408C212.805 192.208 213.285 192.624 214.245 192.624ZM236.817 198H232.657C228.817 198 226.257 196.4 226.257 192.56V181.552C226.257 177.712 228.817 176.112 232.657 176.112H236.817C240.657 176.112 243.217 177.712 243.217 181.552V192.56C243.217 196.4 240.657 198 236.817 198ZM233.457 192.624H236.017C236.977 192.624 237.457 192.208 237.457 191.408V182.608C237.457 181.808 236.977 181.392 236.017 181.392H233.457C232.497 181.392 232.017 181.808 232.017 182.608V191.408C232.017 192.208 232.497 192.624 233.457 192.624ZM256.03 198H251.87C248.03 198 245.47 196.4 245.47 192.56V181.552C245.47 177.712 248.03 176.112 251.87 176.112H256.03C259.87 176.112 262.43 177.712 262.43 181.552V192.56C262.43 196.4 259.87 198 256.03 198ZM252.67 192.624H255.23C256.19 192.624 256.67 192.208 256.67 191.408V182.608C256.67 181.808 256.19 181.392 255.23 181.392H252.67C251.71 181.392 251.23 181.808 251.23 182.608V191.408C251.23 192.208 251.71 192.624 252.67 192.624Z" fill="#D15FB1"/>
<path d="M681.431 670.112V686.624H686.743V692H670.007V686.624H675.671V675.392H670.935V670.112H681.431ZM705.06 675.136L697.988 692H691.588L698.884 675.392H688.196V670.112H705.06V675.136ZM724.336 692H707.376V687.36L717.776 678.688C718.416 678.112 718.576 677.856 718.576 677.28V676.608C718.576 675.808 718.096 675.392 717.136 675.392H714.576C713.616 675.392 713.136 675.808 713.136 676.608V678.368L707.376 676.928V675.552C707.376 671.712 709.936 670.112 713.776 670.112H717.936C721.776 670.112 724.336 671.712 724.336 675.552V677.664C724.336 679.232 723.504 680.768 721.968 681.952L716.336 686.528V686.624H724.336V692ZM732.029 692V686.24H738.109V692.352C738.109 695.168 736.637 697.28 733.565 697.28H732.477L731.517 694.88H732.477C733.917 694.88 734.877 693.824 734.877 692.48V692H732.029ZM756.361 692H752.201C748.361 692 745.801 690.4 745.801 686.56V675.552C745.801 671.712 748.361 670.112 752.201 670.112H756.361C760.201 670.112 762.761 671.712 762.761 675.552V686.56C762.761 690.4 760.201 692 756.361 692ZM753.001 686.624H755.561C756.521 686.624 757.001 686.208 757.001 685.408V676.608C757.001 675.808 756.521 675.392 755.561 675.392H753.001C752.041 675.392 751.561 675.808 751.561 676.608V685.408C751.561 686.208 752.041 686.624 753.001 686.624ZM775.574 692H771.414C767.574 692 765.014 690.4 765.014 686.56V675.552C765.014 671.712 767.574 670.112 771.414 670.112H775.574C779.414 670.112 781.974 671.712 781.974 675.552V686.56C781.974 690.4 779.414 692 775.574 692ZM772.214 686.624H774.774C775.734 686.624 776.214 686.208 776.214 685.408V676.608C776.214 675.808 775.734 675.392 774.774 675.392H772.214C771.254 675.392 770.774 675.808 770.774 676.608V685.408C770.774 686.208 771.254 686.624 772.214 686.624ZM794.786 692H790.626C786.786 692 784.226 690.4 784.226 686.56V675.552C784.226 671.712 786.786 670.112 790.626 670.112H794.786C798.626 670.112 801.186 671.712 801.186 675.552V686.56C801.186 690.4 798.626 692 794.786 692ZM791.426 686.624H793.986C794.946 686.624 795.426 686.208 795.426 685.408V676.608C795.426 675.808 794.946 675.392 793.986 675.392H791.426C790.466 675.392 789.986 675.808 789.986 676.608V685.408C789.986 686.208 790.466 686.624 791.426 686.624ZM808.879 692V686.24H814.959V692.352C814.959 695.168 813.487 697.28 810.415 697.28H809.327L808.367 694.88H809.327C810.767 694.88 811.727 693.824 811.727 692.48V692H808.879ZM833.211 692H829.051C825.211 692 822.651 690.4 822.651 686.56V675.552C822.651 671.712 825.211 670.112 829.051 670.112H833.211C837.051 670.112 839.611 671.712 839.611 675.552V686.56C839.611 690.4 837.051 692 833.211 692ZM829.851 686.624H832.411C833.371 686.624 833.851 686.208 833.851 685.408V676.608C833.851 675.808 833.371 675.392 832.411 675.392H829.851C828.891 675.392 828.411 675.808 828.411 676.608V685.408C828.411 686.208 828.891 686.624 829.851 686.624ZM852.424 692H848.264C844.424 692 841.864 690.4 841.864 686.56V675.552C841.864 671.712 844.424 670.112 848.264 670.112H852.424C856.264 670.112 858.824 671.712 858.824 675.552V686.56C858.824 690.4 856.264 692 852.424 692ZM849.064 686.624H851.624C852.584 686.624 853.064 686.208 853.064 685.408V676.608C853.064 675.808 852.584 675.392 851.624 675.392H849.064C848.104 675.392 847.624 675.808 847.624 676.608V685.408C847.624 686.208 848.104 686.624 849.064 686.624ZM871.636 692H867.476C863.636 692 861.076 690.4 861.076 686.56V675.552C861.076 671.712 863.636 670.112 867.476 670.112H871.636C875.476 670.112 878.036 671.712 878.036 675.552V686.56C878.036 690.4 875.476 692 871.636 692ZM868.276 686.624H870.836C871.796 686.624 872.276 686.208 872.276 685.408V676.608C872.276 675.808 871.796 675.392 870.836 675.392H868.276C867.316 675.392 866.836 675.808 866.836 676.608V685.408C866.836 686.208 867.316 686.624 868.276 686.624Z" fill="#FBBF4C"/>
<path d="M723.091 718.654V720.26C723.091 722.9 721.331 724 718.691 724H715.831C713.191 724 711.431 722.9 711.431 720.26V712.692C711.431 710.052 713.191 708.952 715.831 708.952H718.691C721.331 708.952 723.091 710.052 723.091 712.692V714.078L719.131 715.068V713.418C719.131 712.868 718.801 712.582 718.141 712.582H716.381C715.721 712.582 715.391 712.868 715.391 713.418V719.468C715.391 720.018 715.721 720.304 716.381 720.304H718.141C718.801 720.304 719.131 720.018 719.131 719.468V717.554L723.091 718.654ZM736.894 724H726.114V708.952H736.894V712.582H730.074V714.496H735.486V718.06H730.074V720.304H736.894V724ZM745.879 713.858L747.595 711.944V708.952H751.555V713.154L748.497 716.146L751.973 719.776V724H748.013V721.052L745.879 718.632L743.745 721.052V724H739.785V719.776L743.261 716.146L740.203 713.154V708.952H744.163V711.944L745.879 713.858ZM769.172 715.288H772.692V711.548H776.652V715.288H780.172V718.918H776.652V722.658H772.692V718.918H769.172V715.288ZM808.943 712.692V720.26C808.943 722.9 807.293 724 804.653 724H797.283V708.952H804.653C807.293 708.952 808.943 710.052 808.943 712.692ZM804.983 719.468V713.418C804.983 712.868 804.653 712.582 803.993 712.582H801.243V720.304H803.993C804.653 720.304 804.983 720.018 804.983 719.468ZM822.745 724H811.965V708.952H822.745V712.582H815.925V714.496H821.337V718.06H815.925V720.304H822.745V724ZM831.73 713.858L833.446 711.944V708.952H837.406V713.154L834.348 716.146L837.824 719.776V724H833.864V721.052L831.73 718.632L829.596 721.052V724H825.636V719.776L829.112 716.146L826.054 713.154V708.952H830.014V711.944L831.73 713.858Z" fill="white"/>
<path d="M13.7155 413.582H9.31555V425H5.35555V413.582H0.955547V409.952H13.7155V413.582ZM26.9681 425H16.1881V409.952H26.9681V413.582H20.1481V415.496H25.5601V419.06H20.1481V421.304H26.9681V425ZM37.9987 409.952L42.3547 420.974V425H38.3947V421.568V421.502H33.5107V421.568V425H29.5507V420.974L33.9067 409.952H37.9987ZM35.8867 414.484L34.6767 417.982H37.2067L36.0187 414.484H35.8867ZM56.8613 425H52.9013V416.926H52.7693L51.4933 420.49H49.0293L47.7533 416.926H47.6213V425H43.6613V409.952H47.8413L50.2613 415.342L52.6813 409.952H56.8613V425ZM73.5545 416.288H77.0745V412.548H81.0345V416.288H84.5545V419.918H81.0345V423.658H77.0745V419.918H73.5545V416.288ZM109.542 409.952L113.898 420.974V425H109.938V421.568V421.502H105.054V421.568V425H101.094V420.974L105.45 409.952H109.542ZM107.43 414.484L106.22 417.982H108.75L107.562 414.484H107.43ZM127.634 413.692V421.26C127.634 423.9 125.984 425 123.344 425H115.974V409.952H123.344C125.984 409.952 127.634 411.052 127.634 413.692ZM123.674 420.468V414.418C123.674 413.868 123.344 413.582 122.684 413.582H119.934V421.304H122.684C123.344 421.304 123.674 421.018 123.674 420.468ZM142.515 414.396L138.269 425H133.957L129.711 414.396V409.952H133.671V413.868L136.069 420.512H136.157L138.555 413.868V409.952H142.515V414.396ZM144.701 425V421.304H148.441V413.582H144.921V409.952H155.921V413.582H152.401V421.304H156.141V425H144.701ZM162.97 419.874V420.468C162.97 421.018 163.3 421.304 163.96 421.304H165.5C166.16 421.304 166.49 421.018 166.49 420.468V419.984C166.49 419.434 166.16 419.148 165.5 419.148H163.19C160.55 419.148 159.01 417.916 159.01 415.276V413.802C159.01 411.162 160.99 409.952 163.63 409.952H166.05C168.69 409.952 170.45 411.052 170.45 413.692V413.978L166.49 414.968V414.418C166.49 413.868 166.16 413.582 165.5 413.582H163.96C163.3 413.582 162.97 413.868 162.97 414.418V414.748C162.97 415.298 163.3 415.584 163.96 415.584H166.248C168.888 415.584 170.45 416.772 170.45 419.412V421.15C170.45 423.79 168.47 425 165.83 425H163.41C160.77 425 159.01 423.9 159.01 421.26V420.864L162.97 419.874ZM180.689 425H177.389C174.749 425 172.989 423.9 172.989 421.26V413.692C172.989 411.052 174.749 409.952 177.389 409.952H180.689C183.329 409.952 185.089 411.052 185.089 413.692V421.26C185.089 423.9 183.329 425 180.689 425ZM177.939 421.304H180.139C180.799 421.304 181.129 421.018 181.129 420.468V414.418C181.129 413.868 180.799 413.582 180.139 413.582H177.939C177.279 413.582 176.949 413.868 176.949 414.418V420.468C176.949 421.018 177.279 421.304 177.939 421.304ZM199.177 425H195.217V422.294L193.369 419.94H191.675V425H187.715V409.952H194.755C197.395 409.952 199.177 411.052 199.177 413.692V415.87C199.177 417.256 198.253 418.444 197.219 418.928L199.177 421.37V425ZM191.675 416.376H194.227C194.887 416.376 195.217 416.09 195.217 415.54V414.418C195.217 413.868 194.887 413.582 194.227 413.582H191.675V416.376ZM205.896 419.874V420.468C205.896 421.018 206.226 421.304 206.886 421.304H208.426C209.086 421.304 209.416 421.018 209.416 420.468V419.984C209.416 419.434 209.086 419.148 208.426 419.148H206.116C203.476 419.148 201.936 417.916 201.936 415.276V413.802C201.936 411.162 203.916 409.952 206.556 409.952H208.976C211.616 409.952 213.376 411.052 213.376 413.692V413.978L209.416 414.968V414.418C209.416 413.868 209.086 413.582 208.426 413.582H206.886C206.226 413.582 205.896 413.868 205.896 414.418V414.748C205.896 415.298 206.226 415.584 206.886 415.584H209.174C211.814 415.584 213.376 416.772 213.376 419.412V421.15C213.376 423.79 211.396 425 208.756 425H206.336C203.696 425 201.936 423.9 201.936 421.26V420.864L205.896 419.874Z" fill="white"/>
<path d="M316.81 58.874V59.468C316.81 60.018 317.14 60.304 317.8 60.304H319.34C320 60.304 320.33 60.018 320.33 59.468V58.984C320.33 58.434 320 58.148 319.34 58.148H317.03C314.39 58.148 312.85 56.916 312.85 54.276V52.802C312.85 50.162 314.83 48.952 317.47 48.952H319.89C322.53 48.952 324.29 50.052 324.29 52.692V52.978L320.33 53.968V53.418C320.33 52.868 320 52.582 319.34 52.582H317.8C317.14 52.582 316.81 52.868 316.81 53.418V53.748C316.81 54.298 317.14 54.584 317.8 54.584H320.088C322.728 54.584 324.29 55.772 324.29 58.412V60.15C324.29 62.79 322.31 64 319.67 64H317.25C314.61 64 312.85 62.9 312.85 60.26V59.864L316.81 58.874ZM339.259 52.582H334.859V64H330.899V52.582H326.499V48.952H339.259V52.582ZM349.233 48.952L353.589 59.974V64H349.629V60.568V60.502H344.745V60.568V64H340.785V59.974L345.141 48.952H349.233ZM347.121 53.484L345.911 56.982H348.441L347.253 53.484H347.121ZM367.348 64H363.498V60.546L360.968 57.884L359.362 59.556V64H355.402V48.952H359.362V54.034H359.472L363.256 48.952H368.338L363.432 54.892L367.348 58.808V64ZM370.084 64V60.304H373.824V52.582H370.304V48.952H381.304V52.582H377.784V60.304H381.524V64H370.084ZM396.163 64H392.313L388.199 56.608H388.023V64H384.063V48.952H387.869L392.027 56.674H392.203V48.952H396.163V64ZM410.207 55.42V60.26C410.207 62.9 408.447 64 405.807 64H403.035C400.373 64 398.635 62.9 398.635 60.26V52.692C398.635 50.052 400.395 48.952 403.035 48.952H406.027C408.667 48.952 410.207 50.052 410.207 52.692V53.418L406.247 54.408V53.418C406.247 52.868 405.917 52.582 405.257 52.582H403.585C402.925 52.582 402.595 52.868 402.595 53.418V59.468C402.595 60.018 402.925 60.304 403.585 60.304H405.521C406.115 60.304 406.357 60.128 406.357 59.578V58.5H404.751V55.42H410.207Z" fill="white"/>
<path d="M119.585 230H108.805V214.952H119.585V218.582H112.765V220.496H118.177V224.06H112.765V226.304H119.585V230ZM134.4 224.654V226.26C134.4 228.9 132.64 230 130 230H127.14C124.5 230 122.74 228.9 122.74 226.26V218.692C122.74 216.052 124.5 214.952 127.14 214.952H130C132.64 214.952 134.4 216.052 134.4 218.692V220.078L130.44 221.068V219.418C130.44 218.868 130.11 218.582 129.45 218.582H127.69C127.03 218.582 126.7 218.868 126.7 219.418V225.468C126.7 226.018 127.03 226.304 127.69 226.304H129.45C130.11 226.304 130.44 226.018 130.44 225.468V223.554L134.4 224.654ZM144.529 230H141.229C138.589 230 136.829 228.9 136.829 226.26V218.692C136.829 216.052 138.589 214.952 141.229 214.952H144.529C147.169 214.952 148.929 216.052 148.929 218.692V226.26C148.929 228.9 147.169 230 144.529 230ZM141.779 226.304H143.979C144.639 226.304 144.969 226.018 144.969 225.468V219.418C144.969 218.868 144.639 218.582 143.979 218.582H141.779C141.119 218.582 140.789 218.868 140.789 219.418V225.468C140.789 226.018 141.119 226.304 141.779 226.304ZM155.427 224.874V225.468C155.427 226.018 155.757 226.304 156.417 226.304H157.957C158.617 226.304 158.947 226.018 158.947 225.468V224.984C158.947 224.434 158.617 224.148 157.957 224.148H155.647C153.007 224.148 151.467 222.916 151.467 220.276V218.802C151.467 216.162 153.447 214.952 156.087 214.952H158.507C161.147 214.952 162.907 216.052 162.907 218.692V218.978L158.947 219.968V219.418C158.947 218.868 158.617 218.582 157.957 218.582H156.417C155.757 218.582 155.427 218.868 155.427 219.418V219.748C155.427 220.298 155.757 220.584 156.417 220.584H158.705C161.345 220.584 162.907 221.772 162.907 224.412V226.15C162.907 228.79 160.927 230 158.287 230H155.867C153.227 230 151.467 228.9 151.467 226.26V225.864L155.427 224.874ZM177.788 219.396L173.498 223.642V230H169.538V223.642L165.204 219.396V214.952H169.164V217.944L171.496 220.474L173.828 217.944V214.952H177.788V219.396ZM184.044 224.874V225.468C184.044 226.018 184.374 226.304 185.034 226.304H186.574C187.234 226.304 187.564 226.018 187.564 225.468V224.984C187.564 224.434 187.234 224.148 186.574 224.148H184.264C181.624 224.148 180.084 222.916 180.084 220.276V218.802C180.084 216.162 182.064 214.952 184.704 214.952H187.124C189.764 214.952 191.524 216.052 191.524 218.692V218.978L187.564 219.968V219.418C187.564 218.868 187.234 218.582 186.574 218.582H185.034C184.374 218.582 184.044 218.868 184.044 219.418V219.748C184.044 220.298 184.374 220.584 185.034 220.584H187.322C189.962 220.584 191.524 221.772 191.524 224.412V226.15C191.524 228.79 189.544 230 186.904 230H184.484C181.844 230 180.084 228.9 180.084 226.26V225.864L184.044 224.874ZM206.493 218.582H202.093V230H198.133V218.582H193.733V214.952H206.493V218.582ZM219.745 230H208.965V214.952H219.745V218.582H212.925V220.496H218.337V224.06H212.925V226.304H219.745V230ZM235.33 230H231.37V221.926H231.238L229.962 225.49H227.498L226.222 221.926H226.09V230H222.13V214.952H226.31L228.73 220.342L231.15 214.952H235.33V230Z" fill="white"/>
<path d="M234.949 403.204L234.991 400.907L292.103 401.953L292.8 402.586L234.949 403.204Z" fill="#D9D9D9"/>
<path d="M398.776 266.668H394.148V274H384.788V266.668H367.992V258.244L382.708 238.432H394.148V258.088H398.776V266.668ZM384.788 258.088V249.976L379.068 258.088H384.788ZM411.528 275.536H409.896C407.656 275.536 406.216 274.096 406.216 272.176V269.136C406.216 267.216 407.656 265.776 409.896 265.776H411.528C413.768 265.776 415.208 267.216 415.208 269.136V272.176C415.208 274.096 413.768 275.536 411.528 275.536ZM410.504 272.048H410.952C411.4 272.048 411.56 271.76 411.56 271.408V269.808C411.56 269.456 411.4 269.2 410.952 269.2H410.504C410.056 269.2 409.896 269.456 409.896 269.808V271.408C409.896 271.76 410.056 272.048 410.504 272.048ZM406.28 260.336H404.648C402.408 260.336 400.968 258.896 400.968 256.976V253.936C400.968 252.016 402.408 250.576 404.648 250.576H406.28C408.52 250.576 409.96 252.016 409.96 253.936V256.976C409.96 258.896 408.52 260.336 406.28 260.336ZM405.256 256.848H405.704C406.152 256.848 406.312 256.56 406.312 256.208V254.608C406.312 254.256 406.152 254 405.704 254H405.256C404.808 254 404.648 254.256 404.648 254.608V256.208C404.648 256.56 404.808 256.848 405.256 256.848ZM400.968 267.504V263.888L415.208 258.576V262.192L400.968 267.504Z" fill="#D15FB1"/>
<path d="M224.911 676H207.951V671.36L218.351 662.688C218.991 662.112 219.151 661.856 219.151 661.28V660.608C219.151 659.808 218.671 659.392 217.711 659.392H215.151C214.191 659.392 213.711 659.808 213.711 660.608V662.368L207.951 660.928V659.552C207.951 655.712 210.511 654.112 214.351 654.112H218.511C222.351 654.112 224.911 655.712 224.911 659.552V661.664C224.911 663.232 224.079 664.768 222.543 665.952L216.911 670.528V670.624H224.911V676ZM227.164 669.6L232.924 668.16V669.408C232.924 670.208 233.404 670.624 234.364 670.624H236.924C237.884 670.624 238.364 670.208 238.364 669.408V668.736C238.364 667.936 237.884 667.52 236.924 667.52H234.364V662.4H236.924C237.884 662.4 238.364 661.888 238.364 661.088V660.608C238.364 659.808 237.884 659.392 236.924 659.392H234.364C233.404 659.392 232.924 659.808 232.924 660.608V661.728L227.164 660.288V659.552C227.164 655.712 229.724 654.112 233.564 654.112H237.724C241.564 654.112 244.124 655.712 244.124 659.552V661.12C244.124 662.4 243.388 664.352 241.34 664.96C243.388 665.568 244.124 667.52 244.124 668.8V670.56C244.124 674.4 241.564 676 237.724 676H233.564C229.724 676 227.164 674.4 227.164 670.56V669.6ZM264.328 671.488H261.48V676H255.72V671.488H245.384V666.304L254.44 654.112H261.48V666.208H264.328V671.488ZM255.72 666.208V661.216L252.2 666.208H255.72ZM271.029 676V670.24H277.109V676.352C277.109 679.168 275.637 681.28 272.565 681.28H271.477L270.517 678.88H271.477C272.917 678.88 273.877 677.824 273.877 676.48V676H271.029ZM295.361 676H291.201C287.361 676 284.801 674.4 284.801 670.56V659.552C284.801 655.712 287.361 654.112 291.201 654.112H295.361C299.201 654.112 301.761 655.712 301.761 659.552V670.56C301.761 674.4 299.201 676 295.361 676ZM292.001 670.624H294.561C295.521 670.624 296.001 670.208 296.001 669.408V660.608C296.001 659.808 295.521 659.392 294.561 659.392H292.001C291.041 659.392 290.561 659.808 290.561 660.608V669.408C290.561 670.208 291.041 670.624 292.001 670.624ZM314.574 676H310.414C306.574 676 304.014 674.4 304.014 670.56V659.552C304.014 655.712 306.574 654.112 310.414 654.112H314.574C318.414 654.112 320.974 655.712 320.974 659.552V670.56C320.974 674.4 318.414 676 314.574 676ZM311.214 670.624H313.774C314.734 670.624 315.214 670.208 315.214 669.408V660.608C315.214 659.808 314.734 659.392 313.774 659.392H311.214C310.254 659.392 309.774 659.808 309.774 660.608V669.408C309.774 670.208 310.254 670.624 311.214 670.624ZM333.786 676H329.626C325.786 676 323.226 674.4 323.226 670.56V659.552C323.226 655.712 325.786 654.112 329.626 654.112H333.786C337.626 654.112 340.186 655.712 340.186 659.552V670.56C340.186 674.4 337.626 676 333.786 676ZM330.426 670.624H332.986C333.946 670.624 334.426 670.208 334.426 669.408V660.608C334.426 659.808 333.946 659.392 332.986 659.392H330.426C329.466 659.392 328.986 659.808 328.986 660.608V669.408C328.986 670.208 329.466 670.624 330.426 670.624ZM347.879 676V670.24H353.959V676.352C353.959 679.168 352.487 681.28 349.415 681.28H348.327L347.367 678.88H348.327C349.767 678.88 350.727 677.824 350.727 676.48V676H347.879ZM372.211 676H368.051C364.211 676 361.651 674.4 361.651 670.56V659.552C361.651 655.712 364.211 654.112 368.051 654.112H372.211C376.051 654.112 378.611 655.712 378.611 659.552V670.56C378.611 674.4 376.051 676 372.211 676ZM368.851 670.624H371.411C372.371 670.624 372.851 670.208 372.851 669.408V660.608C372.851 659.808 372.371 659.392 371.411 659.392H368.851C367.891 659.392 367.411 659.808 367.411 660.608V669.408C367.411 670.208 367.891 670.624 368.851 670.624ZM391.424 676H387.264C383.424 676 380.864 674.4 380.864 670.56V659.552C380.864 655.712 383.424 654.112 387.264 654.112H391.424C395.264 654.112 397.824 655.712 397.824 659.552V670.56C397.824 674.4 395.264 676 391.424 676ZM388.064 670.624H390.624C391.584 670.624 392.064 670.208 392.064 669.408V660.608C392.064 659.808 391.584 659.392 390.624 659.392H388.064C387.104 659.392 386.624 659.808 386.624 660.608V669.408C386.624 670.208 387.104 670.624 388.064 670.624ZM410.636 676H406.476C402.636 676 400.076 674.4 400.076 670.56V659.552C400.076 655.712 402.636 654.112 406.476 654.112H410.636C414.476 654.112 417.036 655.712 417.036 659.552V670.56C417.036 674.4 414.476 676 410.636 676ZM407.276 670.624H409.836C410.796 670.624 411.276 670.208 411.276 669.408V660.608C411.276 659.808 410.796 659.392 409.836 659.392H407.276C406.316 659.392 405.836 659.808 405.836 660.608V669.408C405.836 670.208 406.316 670.624 407.276 670.624Z" fill="#D9D9D9"/>
<path d="M239.348 696.692V699.2C239.348 701.84 237.588 702.94 234.948 702.94H232.088V708H228.128V692.952H234.948C237.588 692.952 239.348 694.052 239.348 696.692ZM235.388 698.32V697.418C235.388 696.868 235.058 696.582 234.398 696.582H232.088V699.376H234.398C235.058 699.376 235.388 698.87 235.388 698.32ZM253.437 708H249.477V705.294L247.629 702.94H245.935V708H241.975V692.952H249.015C251.655 692.952 253.437 694.052 253.437 696.692V698.87C253.437 700.256 252.513 701.444 251.479 701.928L253.437 704.37V708ZM245.935 699.376H248.487C249.147 699.376 249.477 699.09 249.477 698.54V697.418C249.477 696.868 249.147 696.582 248.487 696.582H245.935V699.376ZM256.196 708V704.304H259.936V696.582H256.416V692.952H267.416V696.582H263.896V704.304H267.636V708H256.196ZM282.626 697.396L278.38 708H274.068L269.822 697.396V692.952H273.782V696.868L276.18 703.512H276.268L278.666 696.868V692.952H282.626V697.396ZM292.579 692.952L296.935 703.974V708H292.975V704.568V704.502H288.091V704.568V708H284.131V703.974L288.487 692.952H292.579ZM290.467 697.484L289.257 700.982H291.787L290.599 697.484H290.467ZM311.221 696.582H306.821V708H302.861V696.582H298.461V692.952H311.221V696.582ZM324.474 708H313.694V692.952H324.474V696.582H317.654V698.496H323.066V702.06H317.654V704.304H324.474V708ZM346.007 702.874V703.468C346.007 704.018 346.337 704.304 346.997 704.304H348.537C349.197 704.304 349.527 704.018 349.527 703.468V702.984C349.527 702.434 349.197 702.148 348.537 702.148H346.227C343.587 702.148 342.047 700.916 342.047 698.276V696.802C342.047 694.162 344.027 692.952 346.667 692.952H349.087C351.727 692.952 353.487 694.052 353.487 696.692V696.978L349.527 697.968V697.418C349.527 696.868 349.197 696.582 348.537 696.582H346.997C346.337 696.582 346.007 696.868 346.007 697.418V697.748C346.007 698.298 346.337 698.584 346.997 698.584H349.285C351.925 698.584 353.487 699.772 353.487 702.412V704.15C353.487 706.79 351.507 708 348.867 708H346.447C343.807 708 342.047 706.9 342.047 704.26V703.864L346.007 702.874ZM364.122 692.952L368.478 703.974V708H364.518V704.568V704.502H359.634V704.568V708H355.674V703.974L360.03 692.952H364.122ZM362.01 697.484L360.8 700.982H363.33L362.142 697.484H362.01ZM382.324 708H370.664V692.952H374.624V704.304H382.324V708ZM396.017 708H385.237V692.952H396.017V696.582H389.197V698.496H394.609V702.06H389.197V704.304H396.017V708Z" fill="white"/>
<ellipse cx="562.875" cy="332.45" rx="258" ry="258.5" fill="#FF0000"/>
<path d="M384.876 520.946L562.003 332C562.003 332 557.001 461.499 555.002 591C451.002 591 384.876 520.946 384.876 520.946Z" fill="#D9D9D9"/>
<path d="M312.382 268.948L562.375 331.949C562.375 331.949 473.877 426.948 384.377 520.948C270.877 410.948 312.382 268.948 312.382 268.948Z" fill="#B5C5FF"/>
<path d="M910.907 306.462V310.174C910.907 314.014 908.347 315.614 904.507 315.614H900.667C896.827 315.614 894.267 314.014 894.267 310.174V309.566L900.027 308.158V309.022C900.027 309.822 900.507 310.238 901.467 310.238H903.707C904.667 310.238 905.147 309.822 905.147 309.022V307.39C905.147 306.59 904.667 306.174 903.707 306.174H901.723C900.795 306.174 900.027 306.526 900.027 307.198H894.267V293.726H910.203V299.006H900.027V301.854C900.859 301.342 902.203 300.99 903.547 300.99H904.699C907.867 300.99 910.907 302.494 910.907 306.462ZM929.896 298.75L922.824 315.614H916.424L923.72 299.006H913.032V293.726H929.896V298.75ZM942.772 315.614H938.612C934.772 315.614 932.212 314.014 932.212 310.174V299.166C932.212 295.326 934.772 293.726 938.612 293.726H942.772C946.612 293.726 949.172 295.326 949.172 299.166V310.174C949.172 314.014 946.612 315.614 942.772 315.614ZM939.412 310.238H941.972C942.932 310.238 943.412 309.822 943.412 309.022V300.222C943.412 299.422 942.932 299.006 941.972 299.006H939.412C938.452 299.006 937.972 299.422 937.972 300.222V309.022C937.972 309.822 938.452 310.238 939.412 310.238ZM956.865 315.614V309.854H962.945V315.966C962.945 318.782 961.473 320.894 958.401 320.894H957.313L956.353 318.494H957.313C958.753 318.494 959.713 317.438 959.713 316.094V315.614H956.865ZM987.917 307.326V310.174C987.917 314.014 985.357 315.614 981.517 315.614H977.357C973.517 315.614 970.957 314.014 970.957 310.174V299.166C970.957 295.326 973.357 293.726 977.197 293.726H981.517C985.357 293.726 987.917 295.326 987.917 299.166V299.582L982.157 300.862V300.222C982.157 299.422 981.677 299.006 980.717 299.006H978.157C977.197 299.006 976.717 299.422 976.717 300.222V302.494C977.037 302.206 978.221 301.63 980.237 301.63H981.677C985.869 301.63 987.917 303.486 987.917 307.326ZM982.157 309.022V308.03C982.157 307.23 981.677 306.814 980.717 306.814H978.413C977.485 306.814 976.717 307.102 976.717 308.03V309.022C976.717 309.822 977.197 310.238 978.157 310.238H980.717C981.677 310.238 982.157 309.822 982.157 309.022ZM1002.33 293.726V310.238H1007.64V315.614H990.906V310.238H996.57V299.006H991.834V293.726H1002.33ZM1027.01 311.102H1024.17V315.614H1018.41V311.102H1008.07V305.918L1017.13 293.726H1024.17V305.822H1027.01V311.102ZM1018.41 305.822V300.83L1014.89 305.822H1018.41ZM1033.71 315.614V309.854H1039.79V315.966C1039.79 318.782 1038.32 320.894 1035.25 320.894H1034.16L1033.2 318.494H1034.16C1035.6 318.494 1036.56 317.438 1036.56 316.094V315.614H1033.71ZM1058.05 315.614H1053.89C1050.05 315.614 1047.49 314.014 1047.49 310.174V299.166C1047.49 295.326 1050.05 293.726 1053.89 293.726H1058.05C1061.89 293.726 1064.45 295.326 1064.45 299.166V310.174C1064.45 314.014 1061.89 315.614 1058.05 315.614ZM1054.69 310.238H1057.25C1058.21 310.238 1058.69 309.822 1058.69 309.022V300.222C1058.69 299.422 1058.21 299.006 1057.25 299.006H1054.69C1053.73 299.006 1053.25 299.422 1053.25 300.222V309.022C1053.25 309.822 1053.73 310.238 1054.69 310.238ZM1077.26 315.614H1073.1C1069.26 315.614 1066.7 314.014 1066.7 310.174V299.166C1066.7 295.326 1069.26 293.726 1073.1 293.726H1077.26C1081.1 293.726 1083.66 295.326 1083.66 299.166V310.174C1083.66 314.014 1081.1 315.614 1077.26 315.614ZM1073.9 310.238H1076.46C1077.42 310.238 1077.9 309.822 1077.9 309.022V300.222C1077.9 299.422 1077.42 299.006 1076.46 299.006H1073.9C1072.94 299.006 1072.46 299.422 1072.46 300.222V309.022C1072.46 309.822 1072.94 310.238 1073.9 310.238ZM1096.47 315.614H1092.31C1088.47 315.614 1085.91 314.014 1085.91 310.174V299.166C1085.91 295.326 1088.47 293.726 1092.31 293.726H1096.47C1100.31 293.726 1102.87 295.326 1102.87 299.166V310.174C1102.87 314.014 1100.31 315.614 1096.47 315.614ZM1093.11 310.238H1095.67C1096.63 310.238 1097.11 309.822 1097.11 309.022V300.222C1097.11 299.422 1096.63 299.006 1095.67 299.006H1093.11C1092.15 299.006 1091.67 299.422 1091.67 300.222V309.022C1091.67 309.822 1092.15 310.238 1093.11 310.238Z" fill="#FF0000"/>
<path d="M341.875 197.95L560.877 331.446C560.877 331.446 437.454 303.487 312.121 269.753C321.875 229.45 341.875 197.95 341.875 197.95Z" fill="#D15FB1"/>
<path d="M562.391 73.9496L562.392 333.064C562.392 333.064 450.872 262.95 341.876 197.949C427.375 65.4497 562.391 73.9496 562.391 73.9496Z" fill="#9AE7F8"/>
<path d="M463.273 174.432V201.264H471.905V210H444.709V201.264H453.913V183.012H446.217V174.432H463.273ZM503.386 202.668H498.758V210H489.398V202.668H472.602V194.244L487.318 174.432H498.758V194.088H503.386V202.668ZM489.398 194.088V185.976L483.678 194.088H489.398ZM516.138 211.536H514.506C512.266 211.536 510.826 210.096 510.826 208.176V205.136C510.826 203.216 512.266 201.776 514.506 201.776H516.138C518.378 201.776 519.818 203.216 519.818 205.136V208.176C519.818 210.096 518.378 211.536 516.138 211.536ZM515.114 208.048H515.562C516.01 208.048 516.17 207.76 516.17 207.408V205.808C516.17 205.456 516.01 205.2 515.562 205.2H515.114C514.666 205.2 514.506 205.456 514.506 205.808V207.408C514.506 207.76 514.666 208.048 515.114 208.048ZM510.89 196.336H509.258C507.018 196.336 505.578 194.896 505.578 192.976V189.936C505.578 188.016 507.018 186.576 509.258 186.576H510.89C513.13 186.576 514.57 188.016 514.57 189.936V192.976C514.57 194.896 513.13 196.336 510.89 196.336ZM509.866 192.848H510.314C510.762 192.848 510.922 192.56 510.922 192.208V190.608C510.922 190.256 510.762 190 510.314 190H509.866C509.418 190 509.258 190.256 509.258 190.608V192.208C509.258 192.56 509.418 192.848 509.866 192.848ZM505.578 203.504V199.888L519.818 194.576V198.192L505.578 203.504Z" fill="black"/>
<path d="M557.373 590.95L562.066 332.949C562.066 332.949 645.041 431.767 727.873 531.45C646.164 598.603 557.373 590.95 557.373 590.95Z" fill="#FBBF4C"/>
<path d="M651.993 315.6L661.353 313.26V315.288C661.353 316.588 662.133 317.264 663.693 317.264H667.853C669.413 317.264 670.193 316.588 670.193 315.288V314.196C670.193 312.896 669.413 312.22 667.853 312.22H663.693V303.9H667.853C669.413 303.9 670.193 303.068 670.193 301.768V300.988C670.193 299.688 669.413 299.012 667.853 299.012H663.693C662.133 299.012 661.353 299.688 661.353 300.988V302.808L651.993 300.468V299.272C651.993 293.032 656.153 290.432 662.393 290.432H669.153C675.393 290.432 679.553 293.032 679.553 299.272V301.82C679.553 303.9 678.357 307.072 675.029 308.06C678.357 309.048 679.553 312.22 679.553 314.3V317.16C679.553 323.4 675.393 326 669.153 326H662.393C656.153 326 651.993 323.4 651.993 317.16V315.6ZM710.514 314.3V317.16C710.514 323.4 706.354 326 700.114 326H693.874C687.634 326 683.474 323.4 683.474 317.16V314.3C683.474 312.22 684.67 309.048 687.478 308.06C684.67 307.072 683.474 303.9 683.474 301.82V299.272C683.474 293.032 687.634 290.432 693.874 290.432H700.114C706.354 290.432 710.514 293.032 710.514 299.272V301.82C710.514 303.9 709.318 307.072 706.51 308.06C709.318 309.048 710.514 312.22 710.514 314.3ZM701.154 301.872V300.988C701.154 299.688 700.374 299.012 698.814 299.012H695.174C693.614 299.012 692.834 299.688 692.834 300.988V301.872C692.834 303.172 693.614 303.848 695.174 303.848H698.814C700.374 303.848 701.154 303.172 701.154 301.872ZM701.154 315.288V314.248C701.154 312.948 700.374 312.272 698.814 312.272H695.174C693.614 312.272 692.834 312.948 692.834 314.248V315.288C692.834 316.588 693.614 317.264 695.174 317.264H698.814C700.374 317.264 701.154 316.588 701.154 315.288ZM725.138 327.536H723.506C721.266 327.536 719.826 326.096 719.826 324.176V321.136C719.826 319.216 721.266 317.776 723.506 317.776H725.138C727.378 317.776 728.818 319.216 728.818 321.136V324.176C728.818 326.096 727.378 327.536 725.138 327.536ZM724.114 324.048H724.562C725.01 324.048 725.17 323.76 725.17 323.408V321.808C725.17 321.456 725.01 321.2 724.562 321.2H724.114C723.666 321.2 723.506 321.456 723.506 321.808V323.408C723.506 323.76 723.666 324.048 724.114 324.048ZM719.89 312.336H718.258C716.018 312.336 714.578 310.896 714.578 308.976V305.936C714.578 304.016 716.018 302.576 718.258 302.576H719.89C722.13 302.576 723.57 304.016 723.57 305.936V308.976C723.57 310.896 722.13 312.336 719.89 312.336ZM718.866 308.848H719.314C719.762 308.848 719.922 308.56 719.922 308.208V306.608C719.922 306.256 719.762 306 719.314 306H718.866C718.418 306 718.258 306.256 718.258 306.608V308.208C718.258 308.56 718.418 308.848 718.866 308.848ZM714.578 319.504V315.888L728.818 310.576V314.192L714.578 319.504Z" fill="black"/>
<path d="M922.03 336.306V338.814C922.03 341.454 920.27 342.554 917.63 342.554H914.77V347.614H910.81V332.566H917.63C920.27 332.566 922.03 333.666 922.03 336.306ZM918.07 337.934V337.032C918.07 336.482 917.74 336.196 917.08 336.196H914.77V338.99H917.08C917.74 338.99 918.07 338.484 918.07 337.934ZM936.229 347.614H924.569V332.566H928.529V343.918H936.229V347.614ZM946.643 332.566L950.999 343.588V347.614H947.039V344.182V344.116H942.155V344.182V347.614H938.195V343.588L942.551 332.566H946.643ZM944.531 337.098L943.321 340.596H945.851L944.663 337.098H944.531ZM965.198 337.01L960.908 341.256V347.614H956.948V341.256L952.614 337.01V332.566H956.574V335.558L958.906 338.088L961.238 335.558V332.566H965.198V337.01ZM989.569 332.566L993.925 343.588V347.614H989.965V344.182V344.116H985.081V344.182V347.614H981.121V343.588L985.477 332.566H989.569ZM987.457 337.098L986.247 340.596H988.777L987.589 337.098H987.457ZM1007.88 347.614H1004.03L999.918 340.222H999.742V347.614H995.782V332.566H999.588L1003.75 340.288H1003.92V332.566H1007.88V347.614ZM1021.97 336.306V343.874C1021.97 346.514 1020.32 347.614 1017.68 347.614H1010.31V332.566H1017.68C1020.32 332.566 1021.97 333.666 1021.97 336.306ZM1018.01 343.082V337.032C1018.01 336.482 1017.68 336.196 1017.02 336.196H1014.27V343.918H1017.02C1017.68 343.918 1018.01 343.632 1018.01 343.082ZM1050.08 347.614H1039.3V332.566H1050.08V336.196H1043.26V338.11H1048.67V341.674H1043.26V343.918H1050.08V347.614ZM1061.11 332.566L1065.47 343.588V347.614H1061.51V344.182V344.116H1056.62V344.182V347.614H1052.66V343.588L1057.02 332.566H1061.11ZM1059 337.098L1057.79 340.596H1060.32L1059.13 337.098H1059ZM1079.2 347.614H1075.24V344.908L1073.4 342.554H1071.7V347.614H1067.74V332.566H1074.78C1077.42 332.566 1079.2 333.666 1079.2 336.306V338.484C1079.2 339.87 1078.28 341.058 1077.25 341.542L1079.2 343.984V347.614ZM1071.7 338.99H1074.25C1074.91 338.99 1075.24 338.704 1075.24 338.154V337.032C1075.24 336.482 1074.91 336.196 1074.25 336.196H1071.7V338.99ZM1093.73 347.614H1089.88L1085.77 340.222H1085.59V347.614H1081.63V332.566H1085.44L1089.6 340.288H1089.77V332.566H1093.73V347.614Z" fill="white"/>
<path d="M873.922 319.827L873.911 321.929L833.342 321.719L832.842 321.149L873.922 319.827Z" fill="#D9D9D9"/>
<path d="M485.644 740.112V756.624H490.956V762H474.22V756.624H479.884V745.392H475.148V740.112H485.644ZM497.816 762V756.24H503.896V762.352C503.896 765.168 502.424 767.28 499.352 767.28H498.264L497.304 764.88H498.264C499.704 764.88 500.664 763.824 500.664 762.48V762H497.816ZM511.589 755.6L517.349 754.16V755.408C517.349 756.208 517.829 756.624 518.789 756.624H521.349C522.309 756.624 522.789 756.208 522.789 755.408V754.736C522.789 753.936 522.309 753.52 521.349 753.52H518.789V748.4H521.349C522.309 748.4 522.789 747.888 522.789 747.088V746.608C522.789 745.808 522.309 745.392 521.349 745.392H518.789C517.829 745.392 517.349 745.808 517.349 746.608V747.728L511.589 746.288V745.552C511.589 741.712 514.149 740.112 517.989 740.112H522.149C525.989 740.112 528.549 741.712 528.549 745.552V747.12C528.549 748.4 527.813 750.352 525.765 750.96C527.813 751.568 528.549 753.52 528.549 754.8V756.56C528.549 760.4 525.989 762 522.149 762H517.989C514.149 762 511.589 760.4 511.589 756.56V755.6ZM547.601 754.8V756.56C547.601 760.4 545.041 762 541.201 762H537.361C533.521 762 530.961 760.4 530.961 756.56V754.8C530.961 753.52 531.697 751.568 533.425 750.96C531.697 750.352 530.961 748.4 530.961 747.12V745.552C530.961 741.712 533.521 740.112 537.361 740.112H541.201C545.041 740.112 547.601 741.712 547.601 745.552V747.12C547.601 748.4 546.865 750.352 545.137 750.96C546.865 751.568 547.601 753.52 547.601 754.8ZM541.841 747.152V746.608C541.841 745.808 541.361 745.392 540.401 745.392H538.161C537.201 745.392 536.721 745.808 536.721 746.608V747.152C536.721 747.952 537.201 748.368 538.161 748.368H540.401C541.361 748.368 541.841 747.952 541.841 747.152ZM541.841 755.408V754.768C541.841 753.968 541.361 753.552 540.401 753.552H538.161C537.201 753.552 536.721 753.968 536.721 754.768V755.408C536.721 756.208 537.201 756.624 538.161 756.624H540.401C541.361 756.624 541.841 756.208 541.841 755.408ZM567.294 753.712V756.56C567.294 760.4 564.734 762 560.894 762H556.734C552.894 762 550.334 760.4 550.334 756.56V745.552C550.334 741.712 552.734 740.112 556.574 740.112H560.894C564.734 740.112 567.294 741.712 567.294 745.552V745.968L561.534 747.248V746.608C561.534 745.808 561.054 745.392 560.094 745.392H557.534C556.574 745.392 556.094 745.808 556.094 746.608V748.88C556.414 748.592 557.598 748.016 559.614 748.016H561.054C565.246 748.016 567.294 749.872 567.294 753.712ZM561.534 755.408V754.416C561.534 753.616 561.054 753.2 560.094 753.2H557.79C556.862 753.2 556.094 753.488 556.094 754.416V755.408C556.094 756.208 556.574 756.624 557.534 756.624H560.094C561.054 756.624 561.534 756.208 561.534 755.408ZM574.666 762V756.24H580.746V762.352C580.746 765.168 579.274 767.28 576.202 767.28H575.114L574.154 764.88H575.114C576.554 764.88 577.514 763.824 577.514 762.48V762H574.666ZM598.999 762H594.839C590.999 762 588.439 760.4 588.439 756.56V745.552C588.439 741.712 590.999 740.112 594.839 740.112H598.999C602.839 740.112 605.399 741.712 605.399 745.552V756.56C605.399 760.4 602.839 762 598.999 762ZM595.639 756.624H598.199C599.159 756.624 599.639 756.208 599.639 755.408V746.608C599.639 745.808 599.159 745.392 598.199 745.392H595.639C594.679 745.392 594.199 745.808 594.199 746.608V755.408C594.199 756.208 594.679 756.624 595.639 756.624ZM618.211 762H614.051C610.211 762 607.651 760.4 607.651 756.56V745.552C607.651 741.712 610.211 740.112 614.051 740.112H618.211C622.051 740.112 624.611 741.712 624.611 745.552V756.56C624.611 760.4 622.051 762 618.211 762ZM614.851 756.624H617.411C618.371 756.624 618.851 756.208 618.851 755.408V746.608C618.851 745.808 618.371 745.392 617.411 745.392H614.851C613.891 745.392 613.411 745.808 613.411 746.608V755.408C613.411 756.208 613.891 756.624 614.851 756.624ZM637.424 762H633.264C629.424 762 626.864 760.4 626.864 756.56V745.552C626.864 741.712 629.424 740.112 633.264 740.112H637.424C641.264 740.112 643.824 741.712 643.824 745.552V756.56C643.824 760.4 641.264 762 637.424 762ZM634.064 756.624H636.624C637.584 756.624 638.064 756.208 638.064 755.408V746.608C638.064 745.808 637.584 745.392 636.624 745.392H634.064C633.104 745.392 632.624 745.808 632.624 746.608V755.408C632.624 756.208 633.104 756.624 634.064 756.624Z" fill="#DCC6AE"/>
<path d="M443.423 794H439.573L435.459 786.608H435.283V794H431.323V778.952H435.129L439.287 786.674H439.463V778.952H443.423V794ZM457.555 782.582H450.515V785.2H456.367V788.764H450.515V794H446.555V778.952H457.555V782.582ZM472.37 782.582H467.97V794H464.01V782.582H459.61V778.952H472.37V782.582ZM500.591 794H496.631V788.17H492.561V794H488.601V778.952H492.561V784.606H496.631V778.952H500.591V794ZM510.566 794H507.266C504.626 794 502.866 792.9 502.866 790.26V782.692C502.866 780.052 504.626 778.952 507.266 778.952H510.566C513.206 778.952 514.966 780.052 514.966 782.692V790.26C514.966 792.9 513.206 794 510.566 794ZM507.816 790.304H510.016C510.676 790.304 511.006 790.018 511.006 789.468V783.418C511.006 782.868 510.676 782.582 510.016 782.582H507.816C507.156 782.582 506.826 782.868 506.826 783.418V789.468C506.826 790.018 507.156 790.304 507.816 790.304ZM529.164 794H517.504V778.952H521.464V790.304H529.164V794ZM543.363 782.692V790.26C543.363 792.9 541.713 794 539.073 794H531.703V778.952H539.073C541.713 778.952 543.363 780.052 543.363 782.692ZM539.403 789.468V783.418C539.403 782.868 539.073 782.582 538.413 782.582H535.663V790.304H538.413C539.073 790.304 539.403 790.018 539.403 789.468ZM557.165 794H546.385V778.952H557.165V782.582H550.345V784.496H555.757V788.06H550.345V790.304H557.165V794ZM571.98 794H568.02V791.294L566.172 788.94H564.478V794H560.518V778.952H567.558C570.198 778.952 571.98 780.052 571.98 782.692V784.87C571.98 786.256 571.056 787.444 570.022 787.928L571.98 790.37V794ZM564.478 785.376H567.03C567.69 785.376 568.02 785.09 568.02 784.54V783.418C568.02 782.868 567.69 782.582 567.03 782.582H564.478V785.376ZM596.813 778.952L601.169 789.974V794H597.209V790.568V790.502H592.325V790.568V794H588.365V789.974L592.721 778.952H596.813ZM594.701 783.484L593.491 786.982H596.021L594.833 783.484H594.701ZM603.356 794V790.304H607.096V782.582H603.576V778.952H614.576V782.582H611.056V790.304H614.796V794H603.356ZM629.214 794H625.254V791.294L623.406 788.94H621.712V794H617.752V778.952H624.792C627.432 778.952 629.214 780.052 629.214 782.692V784.87C629.214 786.256 628.29 787.444 627.256 787.928L629.214 790.37V794ZM621.712 785.376H624.264C624.924 785.376 625.254 785.09 625.254 784.54V783.418C625.254 782.868 624.924 782.582 624.264 782.582H621.712V785.376ZM643.523 782.692V790.26C643.523 792.9 641.873 794 639.233 794H631.863V778.952H639.233C641.873 778.952 643.523 780.052 643.523 782.692ZM639.563 789.468V783.418C639.563 782.868 639.233 782.582 638.573 782.582H635.823V790.304H638.573C639.233 790.304 639.563 790.018 639.563 789.468ZM657.832 794H653.872V791.294L652.024 788.94H650.33V794H646.37V778.952H653.41C656.05 778.952 657.832 780.052 657.832 782.692V784.87C657.832 786.256 656.908 787.444 655.874 787.928L657.832 790.37V794ZM650.33 785.376H652.882C653.542 785.376 653.872 785.09 653.872 784.54V783.418C653.872 782.868 653.542 782.582 652.882 782.582H650.33V785.376ZM667.96 794H664.66C662.02 794 660.26 792.9 660.26 790.26V782.692C660.26 780.052 662.02 778.952 664.66 778.952H667.96C670.6 778.952 672.36 780.052 672.36 782.692V790.26C672.36 792.9 670.6 794 667.96 794ZM665.21 790.304H667.41C668.07 790.304 668.4 790.018 668.4 789.468V783.418C668.4 782.868 668.07 782.582 667.41 782.582H665.21C664.55 782.582 664.22 782.868 664.22 783.418V789.468C664.22 790.018 664.55 790.304 665.21 790.304ZM686.669 782.692V785.2C686.669 787.84 684.909 788.94 682.269 788.94H679.409V794H675.449V778.952H682.269C684.909 778.952 686.669 780.052 686.669 782.692ZM682.709 784.32V783.418C682.709 782.868 682.379 782.582 681.719 782.582H679.409V785.376H681.719C682.379 785.376 682.709 784.87 682.709 784.32Z" fill="white"/>
<path d="M273.301 220.841L274.005 218.717L308.484 230.153L308.722 230.868L273.301 220.841Z" fill="#D9D9D9"/>
<path d="M386 84.2905L387.469 83L410.46 109.174L410.349 109.846L386 84.2905Z" fill="#D9D9D9"/>
<path d="M710.836 648.312L708.945 649.502L671.92 590.643L671.972 589.593L710.836 648.312Z" fill="#D9D9D9"/>
<path d="M552.547 706.686L550.315 706.584L554.159 622.324L554.809 621.307L552.547 706.686Z" fill="#D9D9D9"/>
<path d="M376.086 621.557L374.476 619.716L417.474 582.113L418.441 582.143L376.086 621.557Z" fill="#D9D9D9"/>
<path d="M602.773 470.432V497.264H611.405V506H584.209V497.264H593.413V479.012H585.717V470.432H602.773ZM641.274 506H613.714V498.46L630.614 484.368C631.654 483.432 631.914 483.016 631.914 482.08V480.988C631.914 479.688 631.134 479.012 629.574 479.012H625.414C623.854 479.012 623.074 479.688 623.074 480.988V483.848L613.714 481.508V479.272C613.714 473.032 617.874 470.432 624.114 470.432H630.874C637.114 470.432 641.274 473.032 641.274 479.272V482.704C641.274 485.252 639.922 487.748 637.426 489.672L628.274 497.108V497.264H641.274V506ZM655.638 507.536H654.006C651.766 507.536 650.326 506.096 650.326 504.176V501.136C650.326 499.216 651.766 497.776 654.006 497.776H655.638C657.878 497.776 659.318 499.216 659.318 501.136V504.176C659.318 506.096 657.878 507.536 655.638 507.536ZM654.614 504.048H655.062C655.51 504.048 655.67 503.76 655.67 503.408V501.808C655.67 501.456 655.51 501.2 655.062 501.2H654.614C654.166 501.2 654.006 501.456 654.006 501.808V503.408C654.006 503.76 654.166 504.048 654.614 504.048ZM650.39 492.336H648.758C646.518 492.336 645.078 490.896 645.078 488.976V485.936C645.078 484.016 646.518 482.576 648.758 482.576H650.39C652.63 482.576 654.07 484.016 654.07 485.936V488.976C654.07 490.896 652.63 492.336 650.39 492.336ZM649.366 488.848H649.814C650.262 488.848 650.422 488.56 650.422 488.208V486.608C650.422 486.256 650.262 486 649.814 486H649.366C648.918 486 648.758 486.256 648.758 486.608V488.208C648.758 488.56 648.918 488.848 649.366 488.848ZM645.078 499.504V495.888L659.318 490.576V494.192L645.078 499.504Z" fill="black"/>
<path d="M477.773 468.432V495.264H486.405V504H459.209V495.264H468.413V477.012H460.717V468.432H477.773ZM516.794 490.532V495.16C516.794 501.4 512.634 504 506.394 504H499.634C493.394 504 489.234 501.4 489.234 495.16V477.272C489.234 471.032 493.134 468.432 499.374 468.432H506.394C512.634 468.432 516.794 471.032 516.794 477.272V477.948L507.434 480.028V478.988C507.434 477.688 506.654 477.012 505.094 477.012H500.934C499.374 477.012 498.594 477.688 498.594 478.988V482.68C499.114 482.212 501.038 481.276 504.314 481.276H506.654C513.466 481.276 516.794 484.292 516.794 490.532ZM507.434 493.288V491.676C507.434 490.376 506.654 489.7 505.094 489.7H501.35C499.842 489.7 498.594 490.168 498.594 491.676V493.288C498.594 494.588 499.374 495.264 500.934 495.264H505.094C506.654 495.264 507.434 494.588 507.434 493.288ZM530.638 505.536H529.006C526.766 505.536 525.326 504.096 525.326 502.176V499.136C525.326 497.216 526.766 495.776 529.006 495.776H530.638C532.878 495.776 534.318 497.216 534.318 499.136V502.176C534.318 504.096 532.878 505.536 530.638 505.536ZM529.614 502.048H530.062C530.51 502.048 530.67 501.76 530.67 501.408V499.808C530.67 499.456 530.51 499.2 530.062 499.2H529.614C529.166 499.2 529.006 499.456 529.006 499.808V501.408C529.006 501.76 529.166 502.048 529.614 502.048ZM525.39 490.336H523.758C521.518 490.336 520.078 488.896 520.078 486.976V483.936C520.078 482.016 521.518 480.576 523.758 480.576H525.39C527.63 480.576 529.07 482.016 529.07 483.936V486.976C529.07 488.896 527.63 490.336 525.39 490.336ZM524.366 486.848H524.814C525.262 486.848 525.422 486.56 525.422 486.208V484.608C525.422 484.256 525.262 484 524.814 484H524.366C523.918 484 523.758 484.256 523.758 484.608V486.208C523.758 486.56 523.918 486.848 524.366 486.848ZM520.078 497.504V493.888L534.318 488.576V492.192L520.078 497.504Z" fill="black"/>
<path d="M385.773 349.432V376.264H394.405V385H367.209V376.264H376.413V358.012H368.717V349.432H385.773ZM424.534 370.128V376.16C424.534 382.4 420.374 385 414.134 385H407.894C401.654 385 397.494 382.4 397.494 376.16V375.172L406.854 372.884V374.288C406.854 375.588 407.634 376.264 409.194 376.264H412.834C414.394 376.264 415.174 375.588 415.174 374.288V371.636C415.174 370.336 414.394 369.66 412.834 369.66H409.61C408.102 369.66 406.854 370.232 406.854 371.324H397.494V349.432H423.39V358.012H406.854V362.64C408.206 361.808 410.39 361.236 412.574 361.236H414.446C419.594 361.236 424.534 363.68 424.534 370.128ZM438.638 386.536H437.006C434.766 386.536 433.326 385.096 433.326 383.176V380.136C433.326 378.216 434.766 376.776 437.006 376.776H438.638C440.878 376.776 442.318 378.216 442.318 380.136V383.176C442.318 385.096 440.878 386.536 438.638 386.536ZM437.614 383.048H438.062C438.51 383.048 438.67 382.76 438.67 382.408V380.808C438.67 380.456 438.51 380.2 438.062 380.2H437.614C437.166 380.2 437.006 380.456 437.006 380.808V382.408C437.006 382.76 437.166 383.048 437.614 383.048ZM433.39 371.336H431.758C429.518 371.336 428.078 369.896 428.078 367.976V364.936C428.078 363.016 429.518 361.576 431.758 361.576H433.39C435.63 361.576 437.07 363.016 437.07 364.936V367.976C437.07 369.896 435.63 371.336 433.39 371.336ZM432.366 367.848H432.814C433.262 367.848 433.422 367.56 433.422 367.208V365.608C433.422 365.256 433.262 365 432.814 365H432.366C431.918 365 431.758 365.256 431.758 365.608V367.208C431.758 367.56 431.918 367.848 432.366 367.848ZM428.078 378.504V374.888L442.318 369.576V373.192L428.078 378.504Z" fill="black"/>
<path d="M414.776 276.668H410.148V284H400.788V276.668H383.992V268.244L398.708 248.432H410.148V268.088H414.776V276.668ZM400.788 268.088V259.976L395.068 268.088H400.788ZM427.528 285.536H425.896C423.656 285.536 422.216 284.096 422.216 282.176V279.136C422.216 277.216 423.656 275.776 425.896 275.776H427.528C429.768 275.776 431.208 277.216 431.208 279.136V282.176C431.208 284.096 429.768 285.536 427.528 285.536ZM426.504 282.048H426.952C427.4 282.048 427.56 281.76 427.56 281.408V279.808C427.56 279.456 427.4 279.2 426.952 279.2H426.504C426.056 279.2 425.896 279.456 425.896 279.808V281.408C425.896 281.76 426.056 282.048 426.504 282.048ZM422.28 270.336H420.648C418.408 270.336 416.968 268.896 416.968 266.976V263.936C416.968 262.016 418.408 260.576 420.648 260.576H422.28C424.52 260.576 425.96 262.016 425.96 263.936V266.976C425.96 268.896 424.52 270.336 422.28 270.336ZM421.256 266.848H421.704C422.152 266.848 422.312 266.56 422.312 266.208V264.608C422.312 264.256 422.152 264 421.704 264H421.256C420.808 264 420.648 264.256 420.648 264.608V266.208C420.648 266.56 420.808 266.848 421.256 266.848ZM416.968 277.504V273.888L431.208 268.576V272.192L416.968 277.504Z" fill="black"/>
</svg>
